<svg xmlns="http://www.w3.org/2000/svg" xmlns:xlink="http://www.w3.org/1999/xlink" preserveAspectRatio="xMinYMin meet"
     zoomAndPan="disable" version="1.1" contentScriptType="text/ecmascript" contentStyleType="text/css"
     onload="if (parent.svgViewerNotifyOnLoad) parent.svgViewerNotifyOnLoad(evt);" width="100%" height="100%"
     viewBox="0 0 40 40">
    <rect id="svgEditorBackground" x="0" y="0" width="40" height="40" style="fill: none; stroke: none;"/>
    <defs id="svgEditorDefs">
        <symbol id="1f603" viewBox="0 0 40 40" preserveAspectRatio="xMidYMid meet">
            <rect x="0" y="0" width="64" height="64" style="stroke:none;fill:none;"/>
            <g xmlns="http://www.w3.org/2000/svg">
                <circle cx="32" cy="32" fill="#ffdd67" r="30"/>
                <g fill="#664e27">
                    <circle cx="20.5" cy="24.5" r="5"/>
                    <circle cx="43.5" cy="24.5" r="5"/>
                    <path d="m49 38c0-.8-.5-1.8-1.8-2.1-3.5-.7-8.6-1.3-15.2-1.3-6.6 0-11.7.7-15.2 1.3-1.3.3-1.8 1.3-1.8 2.1 0 7.3 5.6 14.6 17 14.6 11.4 0 17-7.3 17-14.6"/>
                </g>
                <path d="m44.7 38.3c-2.2-.4-6.8-1-12.7-1-5.9 0-10.5.6-12.7 1-1.3.2-1.4.7-1.3 1.5.1.4.1 1 .3 1.6.1.6.3.9 1.3.8 1.9-.2 23-.2 24.9 0 1 .1 1.1-.2 1.3-.8.1-.6.2-1.1.3-1.6 0-.8-.1-1.3-1.4-1.5"
                      fill="#fff"/>
            </g>
        </symbol>
        <pattern height="10" id="wheel-darkblue-usr" patternUnits="userSpaceOnUse" viewBox="-20 -20 168 168" width="10"
                 x="0" y="0">
            <path d="M3.8,80h12.3c1.5,0,2.9,.9,3.5,2.4,0,0,0,0,0,0,.6,1.4,.3,3,-.8,4.1l-8.7,8.7c-1.5,1.5,-1.5,3.9,0,5.4l17.3,17.3c1.5,1.5,3.9,1.5,5.4,0l8.7,-8.7c1.1,-1.1,2.7,-1.4,4.1,-.8,0,0,0,0,0,0,1.4,.6,2.4,2,2.4,3.5v12.3c0,2.1,1.7,3.8,3.8,3.8h24.4c2.1,0,3.8,-1.7,3.8,-3.8v-12.3c0,-1.5,.9,-2.9,2.4,-3.5,0,0,0,0,0,0,1.4,-.6,3,-.3,4.1,.8l8.7,8.7c1.5,1.5,3.9,1.5,5.4,0l17.3,-17.3c1.5,-1.5,1.5,-3.9,0,-5.4l-8.7,-8.7c-1.1,-1.1,-1.4,-2.7,-.8,-4.1,0,0,0,0,0,0,.6,-1.4,2,-2.4,3.5,-2.4h12.3c2.1,0,3.8,-1.7,3.8,-3.8v-24.4c0,-2.1,-1.7,-3.8,-3.8,-3.8h-12.3c-1.5,0,-2.9,-.9,-3.5,-2.4,0,0,0,0,0,0,-.6,-1.4,-.3,-3,.8,-4.1l8.7,-8.7c1.5,-1.5,1.5,-3.9,0,-5.4l-17.3,-17.3c-1.5,-1.5,-3.9,-1.5,-5.4,0l-8.7,8.7c-1.1,1.1,-2.7,1.4,-4.1,.8,0,0,0,0,0,0,-1.4,-.6,-2.4,-2,-2.4,-3.5v-12.3c0,-2.1,-1.7,-3.8,-3.8,-3.8h-24.4c-2.1,0,-3.8,1.7,-3.8,3.8v12.3c0,1.5,-.9,2.9,-2.4,3.5,0,0,0,0,0,0,-1.4,.6,-3,.3,-4.1,-.8l-8.7,-8.7c-1.5,-1.5,-3.9,-1.5,-5.4,0l-17.3,17.3c-1.5,1.5,-1.5,3.9,0,5.4l8.7,8.7c1.1,1.1,1.4,2.7,.8,4.1,0,0,0,0,0,0,-.6,1.4,-2,2.4,-3.5,2.4h-12.3c-2.1,0,-3.8,1.7,-3.8,3.8v24.4c0,2.1,1.7,3.8,3.8,3.8ZM64,32c17.7,0,32,14.3,32,32s-14.3,32,-32,32,-32,-14.3,-32,-32,14.3,-32,32,-32Z"
                  style="fill:darkblue;stroke:none;"/>
            <path d="M72,64c0,4.4-3.6,8-8,8s-8-3.6-8-8c0-4.4,3.6-8,8-8s8,3.6,8,8Z" style="fill:darkblue;stroke:none;"/>
        </pattern>
        <symbol id="1f600" viewBox="0 0 64 64" preserveAspectRatio="xMidYMid meet">
            <rect x="0" y="0" width="40" height="40" style="stroke:none;fill:none;"/>
            <g xmlns="http://www.w3.org/2000/svg">
                <circle cx="32" cy="32" fill="#ffdd67" r="30"/>
                <path d="m49.7 34.4c-.4-.5-1.1-.4-1.9-.4-15.8 0-15.8 0-31.6 0-.8 0-1.5-.1-1.9.4-3.9 5 .7 19.6 17.7 19.6 17 0 21.6-14.6 17.7-19.6"
                      fill="#664e27"/>
                <path d="m33.8 41.7c-.6 0-1.5.5-1.1 2 .2.7 1.2 1.6 1.2 2.8 0 2.4-3.8 2.4-3.8 0 0-1.2 1-2 1.2-2.8.3-1.4-.6-2-1.1-2-1.6 0-4.1 1.7-4.1 4.6 0 3.2 2.7 5.8 6 5.8 3.3 0 6-2.6 6-5.8-.1-2.8-2.7-4.5-4.3-4.6"
                      fill="#4c3526"/>
                <path d="m24.3 50.7c2.2 1 4.8 1.5 7.7 1.5 2.9 0 5.5-.6 7.7-1.5-2.1-1.1-4.7-1.7-7.7-1.7s-5.6.6-7.7 1.7"
                      fill="#ff717f"/>
                <path d="m47 36c-15 0-15 0-29.9 0-2.1 0-2.1 4-.1 4 10.4 0 19.6 0 30 0 2 0 2-4 0-4" fill="#fff"/>
                <g fill="#664e27">
                    <circle cx="20.5" cy="23" r="5"/>
                    <circle cx="43.5" cy="23" r="5"/>
                </g>
            </g>
        </symbol>
        <symbol height="40" id="icons8-jumelles" viewBox="0 0 40 40" width="40" x="0" y="0">
            <path d="M16.5,14.047c0.686-0.181,2.245-0.547,3.621-0.547c1.353,0,2.752,0.354,3.379,0.536v4.29 c-0.749-0.206-2.035-0.492-3.379-0.492c-1.385,0-2.816,0.305-3.621,0.509V14.047z"
                  fill="#b0c1d4"/>
            <path d="M20.121,14c1.076,0,2.19,0.238,2.879,0.417v3.268c-0.776-0.178-1.81-0.352-2.879-0.352 c-1.124,0-2.275,0.193-3.121,0.378v-3.275C17.761,14.252,19.008,14,20.121,14 M20.121,13C18.204,13,16,13.667,16,13.667 s0,3.331,0,5.333c0,0,2.135-0.667,4.121-0.667S24,19,24,19c0-2.002,0-5.333,0-5.333S22.038,13,20.121,13L20.121,13z"
                  fill="#66798f"/>
            <path d="M24.5,12.833V8c0-1.93,1.57-3.5,3.5-3.5s3.5,1.57,3.5,3.5v4.833H24.5z" fill="#b0c1d4"/>
            <path d="M28,5c1.654,0,3,1.346,3,3v4.333h-6V8C25,6.346,26.346,5,28,5 M28,4c-2.209,0-4,1.791-4,4 c0,0.228,0,5.105,0,5.333h8c0-0.228,0-5.105,0-5.333C32,5.791,30.209,4,28,4L28,4z"
                  fill="#66798f"/>
            <path d="M23.5,26.461V12.844c0-1.417,1.295-4.344,5.297-4.344c3.64,0,5.371,2.644,5.389,2.67 c0.022,0.057,4.956,10.417,5.296,15.291H23.5z"
                  fill="#b0c1d4"/>
            <path d="M28.797,9c3.125,0,4.706,2.068,4.939,2.399c0.405,0.857,4.605,9.827,5.196,14.563H24V12.844 C24,11.847,24.881,9,28.797,9 M28.797,8C24.321,8,23,11.34,23,12.844c0,1.231,0,5.381,0,14.118h17c0-4.791-5.394-16.06-5.394-16.06 S32.753,8,28.797,8L28.797,8z"
                  fill="#66798f"/>
            <path d="M16.5,18.047c0.686-0.181,2.245-0.547,3.621-0.547c1.353,0,2.752,0.354,3.379,0.536v4.29 c-0.749-0.206-2.035-0.492-3.379-0.492c-1.385,0-2.816,0.305-3.621,0.509V18.047z"
                  fill="#b0c1d4"/>
            <path d="M20.121,18c1.076,0,2.19,0.238,2.879,0.417v3.268c-0.776-0.178-1.81-0.352-2.879-0.352 c-1.124,0-2.275,0.193-3.121,0.378v-3.275C17.761,18.252,19.008,18,20.121,18 M20.121,17C18.204,17,16,17.667,16,17.667 s0,3.331,0,5.333c0,0,2.135-0.667,4.121-0.667S24,23,24,23c0-2.002,0-5.333,0-5.333S22.038,17,20.121,17L20.121,17z"
                  fill="#66798f"/>
            <path d="M31.5 19.5A8 8 0 1 0 31.5 35.5A8 8 0 1 0 31.5 19.5Z" fill="#dcd5f2"/>
            <path d="M31.5,20c4.135,0,7.5,3.364,7.5,7.5S35.635,35,31.5,35S24,31.636,24,27.5S27.365,20,31.5,20 M31.5,19c-4.694,0-8.5,3.806-8.5,8.5s3.806,8.5,8.5,8.5s8.5-3.806,8.5-8.5S36.194,19,31.5,19L31.5,19z"
                  fill="#8b75a1"/>
            <path d="M27.5,27.5c0-2.209,1.791-4,4-4" fill="none" stroke="#fff" stroke-miterlimit="10"/>
            <g>
                <path d="M8.5,12.833V8c0-1.93,1.57-3.5,3.5-3.5s3.5,1.57,3.5,3.5v4.833H8.5z" fill="#b0c1d4"/>
                <path d="M12,5c1.654,0,3,1.346,3,3v4.333H9V8C9,6.346,10.346,5,12,5 M12,4C9.791,4,8,5.791,8,8 c0,0.228,0,5.105,0,5.333h8c0-0.228,0-5.105,0-5.333C16,5.791,14.209,4,12,4L12,4z"
                      fill="#66798f"/>
            </g>
            <g>
                <path d="M0.519,26.461c0.34-4.875,5.274-15.236,5.326-15.344c0.04-0.055,1.74-2.617,5.358-2.617 c4.002,0,5.297,2.926,5.297,4.344v13.618H0.519z"
                      fill="#b0c1d4"/>
                <path d="M11.203,9C15.119,9,16,11.847,16,12.844v13.118H1.069c0.59-4.736,4.791-13.706,5.196-14.563 C6.491,11.077,8.079,9,11.203,9 M11.203,8c-3.956,0-5.81,2.902-5.81,2.902S0,22.171,0,26.962h17c0-8.736,0-12.887,0-14.118 C17,11.34,15.679,8,11.203,8L11.203,8z"
                      fill="#66798f"/>
            </g>
            <g>
                <path d="M8.5 19.5A8 8 0 1 0 8.5 35.5A8 8 0 1 0 8.5 19.5Z" fill="#dcd5f2"/>
                <path d="M8.5,20c4.135,0,7.5,3.364,7.5,7.5S12.635,35,8.5,35S1,31.636,1,27.5S4.365,20,8.5,20 M8.5,19 C3.806,19,0,22.806,0,27.5S3.806,36,8.5,36s8.5-3.806,8.5-8.5S13.194,19,8.5,19L8.5,19z"
                      fill="#8b75a1"/>
            </g>
            <path d="M4.5,27.5c0-2.209,1.791-4,4-4" fill="none" stroke="#fff" stroke-miterlimit="10"/>
        </symbol>
    </defs>
    <text style="fill:black;font-family:Arial;font-size:20px" x="0" y="0" id="e5_texte"></text>
    <use xlink:href="#1f600" x="8" y="17" width="20" height="20" id="e6_emoji"
         style="fill:rosybrown;"/>
    <text style="fill:#FFBB00;font-family:Arial;font-size:14px;font-weight:bold" x="0" y="15" id="e8_texte">Tancy</text>
</svg>